<?xml version="1.0" encoding="UTF-8" standalone="no"?>
<!DOCTYPE svg PUBLIC "-//W3C//DTD SVG 1.1//EN" "http://www.w3.org/Graphics/SVG/1.1/DTD/svg11.dtd">
<svg width="100%" height="100%" viewBox="0 0 128 128" version="1.1" xmlns="http://www.w3.org/2000/svg" xmlns:xlink="http://www.w3.org/1999/xlink" xml:space="preserve" xmlns:serif="http://www.serif.com/" style="fill-rule:evenodd;clip-rule:evenodd;stroke-linejoin:round;stroke-miterlimit:2;">
    <g transform="matrix(1,0,0,1,-798,0)">
        <g id="Artboard2" transform="matrix(1,0,0,1,-1,0)">
            <rect x="799" y="0" width="128" height="128" style="fill:none;"/>
            <g transform="matrix(1,0,0,1,1,0)">
                <path d="M894.002,42C895.105,42 896,41.105 896,40.002C896,36.344 896,28.944 896,28.944C896,26.672 897.284,24.594 899.317,23.578C903.437,21.518 909.763,18.355 915.317,15.578C917.177,14.648 919.385,14.747 921.154,15.84C922.923,16.934 924,18.865 924,20.944C924,20.944 924,56 924,56C924,59.314 921.314,62 918,62C905.704,62 882.296,62 870,62C866.686,62 864,59.314 864,56L864,8C864,4.686 866.686,2 870,2L886,2C889.314,2 892,4.686 892,8L892,40.002C892,41.105 892.895,42 893.998,42L894.002,42Z" style="fill:rgb(48,50,59);"/>
            </g>
            <g transform="matrix(1,0,0,1,1,0)">
                <path d="M918.754,126L870,126C868.409,126 866.883,125.368 865.757,124.243C864.632,123.117 864,121.591 864,120L864,72C864,70.409 864.632,68.883 865.757,67.757C866.883,66.632 868.409,66 870,66C870,66 916.056,66 916.056,66C918.135,66 920.066,67.077 921.16,68.846C922.253,70.615 922.352,72.823 921.422,74.683C918.645,80.237 915.482,86.563 913.422,90.683C912.406,92.716 910.328,94 908.056,94C908.056,94 891.769,94 885.998,94C884.895,94 884,94.895 884,95.998C884,95.999 884,95.999 884,96C884,97.105 884.895,98 886,98C891.43,98 906.589,98 914.754,98C917.507,98 919.907,99.874 920.575,102.545C921.702,107.054 923.265,113.308 924.575,118.545C925.023,120.337 924.62,122.236 923.483,123.692C922.346,125.149 920.601,126 918.754,126Z" style="fill:rgb(48,50,59);"/>
            </g>
            <g transform="matrix(1,0,0,1,1,0)">
                <path d="M832,120C832,123.314 834.686,126 838,126C842.887,126 849.113,126 854,126C857.314,126 860,123.314 860,120L860,104C860,100.686 857.314,98 854,98L846,98C845.47,98 844.961,97.789 844.586,97.414C844.211,97.039 844,96.53 844,96C844,95.999 844,95.999 844,95.998C844,94.895 844.895,94 845.998,94C848.916,94 854,94 854,94C857.314,94 860,91.314 860,88L860,72C860,68.686 857.314,66 854,66L838,66C834.686,66 832,68.686 832,72C832,77.494 832,84.681 832,89.754C832,94.342 828.877,98.342 824.425,99.455C818.727,100.88 810.243,103.001 804.545,104.425C801.874,105.093 800,107.493 800,110.246C800,113.225 800,116.824 800,120C800,123.314 802.686,126 806,126L822,126C825.314,126 828,123.314 828,120L828,112C828,111.47 828.211,110.961 828.586,110.586C828.961,110.211 829.47,110 830,110C830.001,110 830.001,110 830.002,110C831.105,110 832,110.895 832,111.998L832,120Z" style="fill:rgb(255,109,45);"/>
            </g>
            <g transform="matrix(1,0,0,1,1,-3)">
                <path d="M800,75C800,71.686 802.686,69 806,69L822,69C825.314,69 828,71.686 828,75C828,79.887 828,86.113 828,91C828,94.314 825.314,97 822,97L806,97C802.686,97 800,94.314 800,91L800,75Z" style="fill:rgb(48,50,59);"/>
            </g>
            <g transform="matrix(1,0,0,1,1,0)">
                <path d="M820.2,34C821.125,38.564 825.16,42 829.998,42C829.999,42 829.999,42 830,42C832.652,42 835.196,40.946 837.071,39.071C838.946,37.196 840,34.652 840,32C840,32 840,32 840,32C840,26.477 835.523,22 830,22L829.998,22C825.16,22 821.125,25.436 820.2,30L806,30C802.686,30 800,27.314 800,24L800,8C800,4.686 802.686,2 806,2L854,2C857.314,2 860,4.686 860,8C860,20.296 860,43.704 860,56C860,59.314 857.314,62 854,62L806,62C802.686,62 800,59.314 800,56L800,40C800,36.686 802.686,34 806,34L820.2,34Z" style="fill:rgb(255,109,45);"/>
            </g>
        </g>
    </g>
</svg>
